<svg width="226" height="190" viewBox="0 0 226 190" fill="none" xmlns="http://www.w3.org/2000/svg">
<circle cx="114" cy="95" r="83.5" stroke="white" stroke-width="23"/>
<rect y="69" width="226" height="56" fill="#398378"/>
<path d="M10.8633 111V79H32.0508V84.5781H17.6289V92.2031H30.6445V97.7812H17.6289V111H10.8633ZM50.3633 100.781V87H57.0195V111H50.6289V106.641H50.3789C49.8372 108.047 48.9362 109.177 47.6758 110.031C46.4258 110.885 44.8997 111.313 43.0977 111.313C41.4935 111.313 40.082 110.948 38.8633 110.219C37.6445 109.49 36.6914 108.453 36.0039 107.109C35.3268 105.766 34.9831 104.156 34.9727 102.281V87H41.6289V101.094C41.6393 102.51 42.0195 103.63 42.7695 104.453C43.5195 105.276 44.5247 105.687 45.7852 105.687C46.5872 105.687 47.3372 105.505 48.0352 105.141C48.7331 104.766 49.2956 104.214 49.7227 103.484C50.1602 102.755 50.3737 101.854 50.3633 100.781ZM69 79V111H62.3438V79H69ZM80.9883 79V111H74.332V79H80.9883ZM124.863 90.2031H118.02C117.895 89.3177 117.639 88.5312 117.254 87.8437C116.868 87.1458 116.374 86.5521 115.77 86.0625C115.165 85.5729 114.467 85.1979 113.676 84.9375C112.895 84.6771 112.046 84.5469 111.129 84.5469C109.473 84.5469 108.03 84.9583 106.801 85.7812C105.572 86.5937 104.618 87.7812 103.941 89.3438C103.264 90.8958 102.926 92.7812 102.926 95C102.926 97.2812 103.264 99.1979 103.941 100.75C104.629 102.302 105.587 103.474 106.816 104.266C108.046 105.057 109.467 105.453 111.082 105.453C111.988 105.453 112.827 105.333 113.598 105.094C114.379 104.854 115.072 104.505 115.676 104.047C116.28 103.578 116.78 103.01 117.176 102.344C117.582 101.677 117.863 100.917 118.02 100.062L124.863 100.094C124.686 101.562 124.243 102.979 123.535 104.344C122.837 105.698 121.895 106.911 120.707 107.984C119.53 109.047 118.124 109.891 116.488 110.516C114.863 111.13 113.025 111.437 110.973 111.437C108.118 111.437 105.566 110.792 103.316 109.5C101.077 108.208 99.306 106.339 98.0039 103.891C96.7122 101.443 96.0664 98.4792 96.0664 95C96.0664 91.5104 96.7227 88.5417 98.0352 86.0938C99.3477 83.6458 101.129 81.7812 103.379 80.5C105.629 79.2083 108.16 78.5625 110.973 78.5625C112.827 78.5625 114.546 78.8229 116.129 79.3437C117.723 79.8646 119.134 80.625 120.363 81.625C121.592 82.6146 122.592 83.8281 123.363 85.2656C124.145 86.7031 124.645 88.349 124.863 90.2031ZM129.59 111V87H136.246V111H129.59ZM132.934 83.9062C131.944 83.9062 131.095 83.5781 130.387 82.9219C129.689 82.2552 129.34 81.4583 129.34 80.5312C129.34 79.6146 129.689 78.8281 130.387 78.1719C131.095 77.5052 131.944 77.1719 132.934 77.1719C133.923 77.1719 134.767 77.5052 135.465 78.1719C136.173 78.8281 136.527 79.6146 136.527 80.5312C136.527 81.4583 136.173 82.2552 135.465 82.9219C134.767 83.5781 133.923 83.9062 132.934 83.9062ZM141.578 111V87H148.031V91.1875H148.281C148.719 89.6979 149.453 88.5729 150.484 87.8125C151.516 87.0417 152.703 86.6562 154.047 86.6562C154.38 86.6562 154.74 86.6771 155.125 86.7187C155.51 86.7604 155.849 86.8177 156.141 86.8906V92.7969C155.828 92.7031 155.396 92.6198 154.844 92.5469C154.292 92.474 153.786 92.4375 153.328 92.4375C152.349 92.4375 151.474 92.651 150.703 93.0781C149.943 93.4948 149.339 94.0781 148.891 94.8281C148.453 95.5781 148.234 96.4427 148.234 97.4219V111H141.578ZM169.309 111.469C166.85 111.469 164.736 110.948 162.965 109.906C161.204 108.854 159.85 107.396 158.902 105.531C157.965 103.667 157.496 101.521 157.496 99.0937C157.496 96.6354 157.97 94.4792 158.918 92.625C159.876 90.7604 161.236 89.3073 162.996 88.2656C164.757 87.2135 166.85 86.6875 169.277 86.6875C171.371 86.6875 173.204 87.0677 174.777 87.8281C176.35 88.5885 177.595 89.6562 178.512 91.0312C179.428 92.4062 179.934 94.0208 180.027 95.875H173.746C173.569 94.6771 173.1 93.7135 172.34 92.9844C171.59 92.2448 170.605 91.875 169.387 91.875C168.355 91.875 167.454 92.1562 166.684 92.7187C165.923 93.2708 165.329 94.0781 164.902 95.1406C164.475 96.2031 164.262 97.4896 164.262 99C164.262 100.531 164.47 101.833 164.887 102.906C165.314 103.979 165.913 104.797 166.684 105.359C167.454 105.922 168.355 106.203 169.387 106.203C170.147 106.203 170.829 106.047 171.434 105.734C172.048 105.422 172.553 104.969 172.949 104.375C173.355 103.771 173.621 103.047 173.746 102.203H180.027C179.923 104.036 179.423 105.651 178.527 107.047C177.642 108.432 176.418 109.516 174.855 110.297C173.293 111.078 171.444 111.469 169.309 111.469ZM190.945 79V111H184.289V79H190.945ZM207.215 111.469C204.746 111.469 202.621 110.969 200.84 109.969C199.069 108.958 197.704 107.531 196.746 105.687C195.788 103.833 195.309 101.641 195.309 99.1094C195.309 96.6406 195.788 94.474 196.746 92.6094C197.704 90.7448 199.053 89.2917 200.793 88.25C202.543 87.2083 204.595 86.6875 206.949 86.6875C208.533 86.6875 210.007 86.9427 211.371 87.4531C212.746 87.9531 213.944 88.7083 214.965 89.7187C215.996 90.7292 216.798 92 217.371 93.5312C217.944 95.0521 218.23 96.8333 218.23 98.875V100.703H197.965V96.5781H211.965C211.965 95.6198 211.757 94.7708 211.34 94.0313C210.923 93.2917 210.345 92.7135 209.605 92.2969C208.876 91.8698 208.027 91.6562 207.059 91.6562C206.048 91.6562 205.152 91.8906 204.371 92.3594C203.6 92.8177 202.996 93.4375 202.559 94.2187C202.121 94.9896 201.897 95.849 201.887 96.7969V100.719C201.887 101.906 202.105 102.932 202.543 103.797C202.991 104.661 203.621 105.328 204.434 105.797C205.246 106.266 206.21 106.5 207.324 106.5C208.064 106.5 208.741 106.396 209.355 106.188C209.97 105.979 210.496 105.667 210.934 105.25C211.371 104.833 211.704 104.323 211.934 103.719L218.09 104.125C217.777 105.604 217.137 106.896 216.168 108C215.21 109.094 213.97 109.948 212.449 110.563C210.939 111.167 209.194 111.469 207.215 111.469Z" fill="white"/>
</svg>
